<mxfile host="app.diagrams.net" agent="Mozilla/5.0 (Windows NT 10.0; Win64; x64) AppleWebKit/537.36 (KHTML, like Gecko) Chrome/129.0.0.0 Safari/537.36" version="24.7.17" pages="3">
  <diagram name="Halaman-1" id="GbUWycWMfNZccRVf2EQ0">
    <mxGraphModel dx="880" dy="1629" grid="1" gridSize="10" guides="1" tooltips="1" connect="1" arrows="1" fold="1" page="1" pageScale="1" pageWidth="827" pageHeight="1169" math="0" shadow="0">
      <root>
        <mxCell id="0" />
        <mxCell id="1" parent="0" />
        <mxCell id="GakSFm36LPXETbhwscrp-1" value="START" style="rounded=1;whiteSpace=wrap;html=1;" vertex="1" parent="1">
          <mxGeometry x="354" y="-440" width="120" height="60" as="geometry" />
        </mxCell>
        <mxCell id="GakSFm36LPXETbhwscrp-2" value="" style="endArrow=classic;html=1;rounded=0;" edge="1" parent="1">
          <mxGeometry width="50" height="50" relative="1" as="geometry">
            <mxPoint x="414" y="-380" as="sourcePoint" />
            <mxPoint x="414" y="-350" as="targetPoint" />
          </mxGeometry>
        </mxCell>
        <mxCell id="GakSFm36LPXETbhwscrp-3" value="NILAI AWAL PADA SEVEN SEGMEN DIATUR MENJADI 0" style="shape=parallelogram;perimeter=parallelogramPerimeter;whiteSpace=wrap;html=1;fixedSize=1;" vertex="1" parent="1">
          <mxGeometry x="314" y="-350" width="200" height="70" as="geometry" />
        </mxCell>
        <mxCell id="GakSFm36LPXETbhwscrp-4" value="" style="endArrow=classic;html=1;rounded=0;" edge="1" parent="1">
          <mxGeometry width="50" height="50" relative="1" as="geometry">
            <mxPoint x="413" y="-270" as="sourcePoint" />
            <mxPoint x="413" y="-250" as="targetPoint" />
            <Array as="points">
              <mxPoint x="413.5" y="-270" />
              <mxPoint x="413.5" y="-280" />
            </Array>
          </mxGeometry>
        </mxCell>
        <mxCell id="GakSFm36LPXETbhwscrp-8" value="" style="edgeStyle=orthogonalEdgeStyle;rounded=0;orthogonalLoop=1;jettySize=auto;html=1;" edge="1" parent="1" source="GakSFm36LPXETbhwscrp-5" target="GakSFm36LPXETbhwscrp-7">
          <mxGeometry relative="1" as="geometry" />
        </mxCell>
        <mxCell id="GakSFm36LPXETbhwscrp-5" value="ANGKA PADA SEVEN SEGMENT DITAMPILKAN SESUAI DENGAN NILAI YANG ADA" style="strokeWidth=2;html=1;shape=mxgraph.flowchart.display;whiteSpace=wrap;" vertex="1" parent="1">
          <mxGeometry x="336" y="-250" width="156" height="110" as="geometry" />
        </mxCell>
        <mxCell id="GakSFm36LPXETbhwscrp-6" value="" style="endArrow=classic;html=1;rounded=0;" edge="1" parent="1">
          <mxGeometry width="50" height="50" relative="1" as="geometry">
            <mxPoint x="414" y="-130" as="sourcePoint" />
            <mxPoint x="414" y="-110" as="targetPoint" />
            <Array as="points">
              <mxPoint x="414.5" y="-130" />
              <mxPoint x="414.5" y="-140" />
            </Array>
          </mxGeometry>
        </mxCell>
        <mxCell id="GakSFm36LPXETbhwscrp-7" value="NILAI PADA SEVEN SEGMENT DITAMBAH 1" style="rounded=0;whiteSpace=wrap;html=1;" vertex="1" parent="1">
          <mxGeometry x="354" y="-110" width="120" height="60" as="geometry" />
        </mxCell>
        <mxCell id="GakSFm36LPXETbhwscrp-9" value="" style="endArrow=classic;html=1;rounded=0;" edge="1" parent="1">
          <mxGeometry width="50" height="50" relative="1" as="geometry">
            <mxPoint x="414" y="-40" as="sourcePoint" />
            <mxPoint x="414" y="-20" as="targetPoint" />
            <Array as="points">
              <mxPoint x="414.5" y="-40" />
              <mxPoint x="414.5" y="-50" />
            </Array>
          </mxGeometry>
        </mxCell>
        <mxCell id="GakSFm36LPXETbhwscrp-12" value="" style="edgeStyle=orthogonalEdgeStyle;rounded=0;orthogonalLoop=1;jettySize=auto;html=1;" edge="1" parent="1" source="GakSFm36LPXETbhwscrp-10" target="GakSFm36LPXETbhwscrp-7">
          <mxGeometry relative="1" as="geometry" />
        </mxCell>
        <mxCell id="GakSFm36LPXETbhwscrp-10" value="APAKAH NILAI &amp;gt; 9?" style="rhombus;whiteSpace=wrap;html=1;" vertex="1" parent="1">
          <mxGeometry x="354" y="-20" width="126" height="100" as="geometry" />
        </mxCell>
        <mxCell id="GakSFm36LPXETbhwscrp-11" value="" style="endArrow=classic;html=1;rounded=0;" edge="1" parent="1">
          <mxGeometry width="50" height="50" relative="1" as="geometry">
            <mxPoint x="416.5" y="90" as="sourcePoint" />
            <mxPoint x="416.5" y="110" as="targetPoint" />
            <Array as="points">
              <mxPoint x="417" y="90" />
              <mxPoint x="417" y="80" />
            </Array>
          </mxGeometry>
        </mxCell>
        <mxCell id="GakSFm36LPXETbhwscrp-13" value="END" style="rounded=1;whiteSpace=wrap;html=1;" vertex="1" parent="1">
          <mxGeometry x="354" y="110" width="120" height="60" as="geometry" />
        </mxCell>
      </root>
    </mxGraphModel>
  </diagram>
  <diagram id="Bh8mJu_pcLG-_PLynUe3" name="Halaman-2">
    <mxGraphModel dx="880" dy="460" grid="1" gridSize="10" guides="1" tooltips="1" connect="1" arrows="1" fold="1" page="1" pageScale="1" pageWidth="827" pageHeight="1169" math="0" shadow="0">
      <root>
        <mxCell id="0" />
        <mxCell id="1" parent="0" />
        <mxCell id="-dmVh5BIcBxDAerCLZJc-1" value="START" style="rounded=1;whiteSpace=wrap;html=1;" vertex="1" parent="1">
          <mxGeometry x="354" y="20" width="120" height="60" as="geometry" />
        </mxCell>
        <mxCell id="-dmVh5BIcBxDAerCLZJc-2" value="" style="endArrow=classic;html=1;rounded=0;" edge="1" parent="1">
          <mxGeometry width="50" height="50" relative="1" as="geometry">
            <mxPoint x="413" y="80" as="sourcePoint" />
            <mxPoint x="413" y="120" as="targetPoint" />
          </mxGeometry>
        </mxCell>
        <mxCell id="-dmVh5BIcBxDAerCLZJc-3" value="detak tombol ya/tidak" style="rhombus;whiteSpace=wrap;html=1;" vertex="1" parent="1">
          <mxGeometry x="359" y="120" width="110" height="120" as="geometry" />
        </mxCell>
        <mxCell id="-dmVh5BIcBxDAerCLZJc-4" value="" style="endArrow=classic;html=1;rounded=0;" edge="1" parent="1">
          <mxGeometry width="50" height="50" relative="1" as="geometry">
            <mxPoint x="414" y="240" as="sourcePoint" />
            <mxPoint x="414" y="280" as="targetPoint" />
          </mxGeometry>
        </mxCell>
        <mxCell id="-dmVh5BIcBxDAerCLZJc-5" value="set status menjadi sedang melakukan count down" style="shape=parallelogram;perimeter=parallelogramPerimeter;whiteSpace=wrap;html=1;fixedSize=1;" vertex="1" parent="1">
          <mxGeometry x="324" y="280" width="180" height="80" as="geometry" />
        </mxCell>
        <mxCell id="-dmVh5BIcBxDAerCLZJc-6" value="" style="endArrow=classic;html=1;rounded=0;" edge="1" parent="1">
          <mxGeometry width="50" height="50" relative="1" as="geometry">
            <mxPoint x="413" y="360" as="sourcePoint" />
            <mxPoint x="413" y="400" as="targetPoint" />
          </mxGeometry>
        </mxCell>
        <mxCell id="-dmVh5BIcBxDAerCLZJc-7" value="angka pada seven segment ditampilkan dengan nilai yang ada" style="strokeWidth=2;html=1;shape=mxgraph.flowchart.display;whiteSpace=wrap;" vertex="1" parent="1">
          <mxGeometry x="344" y="400" width="140" height="120" as="geometry" />
        </mxCell>
        <mxCell id="-dmVh5BIcBxDAerCLZJc-8" value="" style="endArrow=classic;html=1;rounded=0;" edge="1" parent="1">
          <mxGeometry width="50" height="50" relative="1" as="geometry">
            <mxPoint x="414" y="520" as="sourcePoint" />
            <mxPoint x="414" y="560" as="targetPoint" />
          </mxGeometry>
        </mxCell>
        <mxCell id="-dmVh5BIcBxDAerCLZJc-9" value="nilai pada seven segment dikurangi 1" style="rounded=0;whiteSpace=wrap;html=1;" vertex="1" parent="1">
          <mxGeometry x="354" y="560" width="120" height="60" as="geometry" />
        </mxCell>
        <mxCell id="-dmVh5BIcBxDAerCLZJc-10" value="" style="endArrow=classic;html=1;rounded=0;" edge="1" parent="1">
          <mxGeometry width="50" height="50" relative="1" as="geometry">
            <mxPoint x="413" y="620" as="sourcePoint" />
            <mxPoint x="413" y="660" as="targetPoint" />
          </mxGeometry>
        </mxCell>
        <mxCell id="-dmVh5BIcBxDAerCLZJc-11" value="apakah nilai &amp;lt;=0?" style="rhombus;whiteSpace=wrap;html=1;" vertex="1" parent="1">
          <mxGeometry x="359" y="660" width="110" height="110" as="geometry" />
        </mxCell>
        <mxCell id="-dmVh5BIcBxDAerCLZJc-12" value="" style="endArrow=classic;html=1;rounded=0;" edge="1" parent="1">
          <mxGeometry width="50" height="50" relative="1" as="geometry">
            <mxPoint x="413" y="770" as="sourcePoint" />
            <mxPoint x="413" y="810" as="targetPoint" />
          </mxGeometry>
        </mxCell>
        <mxCell id="-dmVh5BIcBxDAerCLZJc-13" value="turn off the light&lt;div&gt;&lt;br&gt;&lt;/div&gt;" style="shape=parallelogram;perimeter=parallelogramPerimeter;whiteSpace=wrap;html=1;fixedSize=1;" vertex="1" parent="1">
          <mxGeometry x="344" y="810" width="120" height="60" as="geometry" />
        </mxCell>
        <mxCell id="-dmVh5BIcBxDAerCLZJc-14" value="" style="endArrow=classic;html=1;rounded=0;" edge="1" parent="1">
          <mxGeometry width="50" height="50" relative="1" as="geometry">
            <mxPoint x="413" y="880" as="sourcePoint" />
            <mxPoint x="413" y="920" as="targetPoint" />
          </mxGeometry>
        </mxCell>
        <mxCell id="-dmVh5BIcBxDAerCLZJc-15" value="END" style="rounded=1;whiteSpace=wrap;html=1;" vertex="1" parent="1">
          <mxGeometry x="354" y="920" width="120" height="60" as="geometry" />
        </mxCell>
      </root>
    </mxGraphModel>
  </diagram>
  <diagram id="0Txncm0Pv7PDEjesDAfV" name="Halaman-3">
    <mxGraphModel dx="880" dy="460" grid="1" gridSize="10" guides="1" tooltips="1" connect="1" arrows="1" fold="1" page="1" pageScale="1" pageWidth="827" pageHeight="1169" math="0" shadow="0">
      <root>
        <mxCell id="0" />
        <mxCell id="1" parent="0" />
        <mxCell id="f7rXa1wemnJ_d964C1l7-1" value="START" style="rounded=1;whiteSpace=wrap;html=1;" vertex="1" parent="1">
          <mxGeometry x="350" y="20" width="120" height="60" as="geometry" />
        </mxCell>
        <mxCell id="f7rXa1wemnJ_d964C1l7-2" value="" style="endArrow=classic;html=1;rounded=0;" edge="1" parent="1">
          <mxGeometry width="50" height="50" relative="1" as="geometry">
            <mxPoint x="414" y="80" as="sourcePoint" />
            <mxPoint x="414" y="110" as="targetPoint" />
          </mxGeometry>
        </mxCell>
        <mxCell id="f7rXa1wemnJ_d964C1l7-3" value="nilai awal seven segmemt diatur menjadi 20" style="shape=parallelogram;perimeter=parallelogramPerimeter;whiteSpace=wrap;html=1;fixedSize=1;" vertex="1" parent="1">
          <mxGeometry x="334" y="110" width="160" height="80" as="geometry" />
        </mxCell>
        <mxCell id="f7rXa1wemnJ_d964C1l7-4" value="angka pada seven segment ditampilkan sesuai dengan nilai yang ada" style="strokeWidth=2;html=1;shape=mxgraph.flowchart.display;whiteSpace=wrap;" vertex="1" parent="1">
          <mxGeometry x="340" y="220" width="140" height="110" as="geometry" />
        </mxCell>
        <mxCell id="f7rXa1wemnJ_d964C1l7-5" value="" style="endArrow=classic;html=1;rounded=0;" edge="1" parent="1">
          <mxGeometry width="50" height="50" relative="1" as="geometry">
            <mxPoint x="409.5" y="190" as="sourcePoint" />
            <mxPoint x="409.5" y="220" as="targetPoint" />
          </mxGeometry>
        </mxCell>
        <mxCell id="f7rXa1wemnJ_d964C1l7-6" value="" style="endArrow=classic;html=1;rounded=0;" edge="1" parent="1">
          <mxGeometry width="50" height="50" relative="1" as="geometry">
            <mxPoint x="413" y="330" as="sourcePoint" />
            <mxPoint x="413" y="360" as="targetPoint" />
          </mxGeometry>
        </mxCell>
        <mxCell id="f7rXa1wemnJ_d964C1l7-7" value="nilai pada seven segment ditambah 1" style="rounded=0;whiteSpace=wrap;html=1;" vertex="1" parent="1">
          <mxGeometry x="354" y="360" width="120" height="60" as="geometry" />
        </mxCell>
        <mxCell id="f7rXa1wemnJ_d964C1l7-8" value="" style="endArrow=classic;html=1;rounded=0;" edge="1" parent="1">
          <mxGeometry width="50" height="50" relative="1" as="geometry">
            <mxPoint x="413" y="420" as="sourcePoint" />
            <mxPoint x="413" y="450" as="targetPoint" />
          </mxGeometry>
        </mxCell>
        <mxCell id="f7rXa1wemnJ_d964C1l7-9" value="apakah nilai &amp;lt;=0?" style="rhombus;whiteSpace=wrap;html=1;" vertex="1" parent="1">
          <mxGeometry x="354" y="450" width="120" height="110" as="geometry" />
        </mxCell>
        <mxCell id="f7rXa1wemnJ_d964C1l7-10" value="" style="endArrow=classic;html=1;rounded=0;" edge="1" parent="1">
          <mxGeometry width="50" height="50" relative="1" as="geometry">
            <mxPoint x="413" y="560" as="sourcePoint" />
            <mxPoint x="413" y="590" as="targetPoint" />
          </mxGeometry>
        </mxCell>
        <mxCell id="f7rXa1wemnJ_d964C1l7-11" value="END" style="rounded=1;whiteSpace=wrap;html=1;" vertex="1" parent="1">
          <mxGeometry x="354" y="590" width="120" height="60" as="geometry" />
        </mxCell>
      </root>
    </mxGraphModel>
  </diagram>
</mxfile>
